<svg width="54" height="54" viewBox="0 0 54 54" fill="none" xmlns="http://www.w3.org/2000/svg">
<g clip-path="url(#clip0_36_726)">
<path d="M23.4556 14.1592V29.7318H34.0799V26.5683H30.5352V23.299H32.7089V20.1355H30.5352V14.1592C32.9029 12.8932 34.5142 10.3977 34.5142 7.52518C34.5142 3.3726 31.148 0.00634766 26.9954 0.00634766C22.8428 0.00634766 19.4766 3.3727 19.4766 7.52518C19.4766 10.3977 21.0879 12.8932 23.4556 14.1592ZM26.9955 5.28818L29.2324 7.52507L26.9953 9.76217L24.7584 7.52528L26.9955 5.28818Z" fill="url(#paint0_radial_36_726)"/>
<path d="M36.6166 53.9936L53.9991 36.611L53.2387 35.8506C52.4067 35.0186 51.3006 34.5605 50.1241 34.5605C48.9476 34.5605 47.8415 35.0187 47.0095 35.8506L38.0589 44.8011H21.4745V41.6376H35.822V40.4093C35.822 38.4518 34.2294 36.8592 32.272 36.8592H19.0041C16.1741 36.8592 13.5135 37.9613 11.5123 39.9625L7.96875 43.506V53.9937L36.6166 53.9936Z" fill="url(#paint1_radial_36_726)"/>
<path d="M0 44.4326H4.80626V53.9938H0V44.4326Z" fill="url(#paint2_radial_36_726)"/>
</g>
<defs>
<radialGradient id="paint0_radial_36_726" cx="0" cy="0" r="1" gradientUnits="userSpaceOnUse" gradientTransform="translate(26.9954 36.1498) rotate(-90) scale(56.4108 10.3094)">
<stop stop-color="#FF9C38"/>
<stop offset="1" stop-color="#F97619"/>
</radialGradient>
<radialGradient id="paint1_radial_36_726" cx="0" cy="0" r="1" gradientUnits="userSpaceOnUse" gradientTransform="translate(30.9839 58.1895) rotate(-90) scale(36.8789 31.5572)">
<stop stop-color="#FF9C38"/>
<stop offset="1" stop-color="#F97619"/>
</radialGradient>
<radialGradient id="paint2_radial_36_726" cx="0" cy="0" r="1" gradientUnits="userSpaceOnUse" gradientTransform="translate(2.40313 56.0581) rotate(-90) scale(18.1445 3.29505)">
<stop stop-color="#FF9C38"/>
<stop offset="1" stop-color="#F97619"/>
</radialGradient>
<clipPath id="clip0_36_726">
<rect width="54" height="54" fill="white"/>
</clipPath>
</defs>
</svg>
